<mxfile host="65bd71144e">
    <diagram id="MW-IG3RYGMrnWT2P4ppQ" name="Page-1">
        <mxGraphModel dx="419" dy="789" grid="1" gridSize="10" guides="1" tooltips="1" connect="1" arrows="1" fold="1" page="1" pageScale="1" pageWidth="850" pageHeight="1100" math="0" shadow="0">
            <root>
                <mxCell id="0"/>
                <mxCell id="1" parent="0"/>
                <mxCell id="3" value="" style="endArrow=block;html=1;fontColor=#000099;exitX=0.5;exitY=0;exitDx=0;exitDy=0;endFill=0;entryX=0.5;entryY=1;entryDx=0;entryDy=0;endSize=8;arcSize=0;" parent="1" source="5" target="4" edge="1">
                    <mxGeometry width="50" height="50" relative="1" as="geometry">
                        <mxPoint x="245" y="280" as="sourcePoint"/>
                        <mxPoint x="402.9999999999893" y="280" as="targetPoint"/>
                    </mxGeometry>
                </mxCell>
                <mxCell id="4" value="modl:Collection" style="rounded=0;whiteSpace=wrap;html=1;snapToPoint=1;points=[[0.1,0],[0.2,0],[0.3,0],[0.4,0],[0.5,0],[0.6,0],[0.7,0],[0.8,0],[0.9,0],[0,0.1],[0,0.3],[0,0.5],[0,0.7],[0,0.9],[0.1,1],[0.2,1],[0.3,1],[0.4,1],[0.5,1],[0.6,1],[0.7,1],[0.8,1],[0.9,1],[1,0.1],[1,0.3],[1,0.5],[1,0.7],[1,0.9]];" parent="1" vertex="1">
                    <mxGeometry x="470" y="240" width="100" height="30" as="geometry"/>
                </mxCell>
                <mxCell id="5" value="modl:Bag" style="rounded=0;whiteSpace=wrap;html=1;snapToPoint=1;points=[[0.1,0],[0.2,0],[0.3,0],[0.4,0],[0.5,0],[0.6,0],[0.7,0],[0.8,0],[0.9,0],[0,0.1],[0,0.3],[0,0.5],[0,0.7],[0,0.9],[0.1,1],[0.2,1],[0.3,1],[0.4,1],[0.5,1],[0.6,1],[0.7,1],[0.8,1],[0.9,1],[1,0.1],[1,0.3],[1,0.5],[1,0.7],[1,0.9]];" parent="1" vertex="1">
                    <mxGeometry x="470" y="340" width="100" height="30" as="geometry"/>
                </mxCell>
                <mxCell id="7" value="modl:bagItem" style="rounded=0;whiteSpace=wrap;html=1;snapToPoint=1;points=[[0.1,0],[0.2,0],[0.3,0],[0.4,0],[0.5,0],[0.6,0],[0.7,0],[0.8,0],[0.9,0],[0,0.1],[0,0.3],[0,0.5],[0,0.7],[0,0.9],[0.1,1],[0.2,1],[0.3,1],[0.4,1],[0.5,1],[0.6,1],[0.7,1],[0.8,1],[0.9,1],[1,0.1],[1,0.3],[1,0.5],[1,0.7],[1,0.9]];" parent="1" vertex="1">
                    <mxGeometry x="140" y="340" width="100" height="30" as="geometry"/>
                </mxCell>
                <mxCell id="8" value="" style="endArrow=classic;html=1;exitX=0;exitY=0.5;exitDx=0;exitDy=0;endSize=8;startArrow=oval;startFill=1;arcSize=0;entryX=1;entryY=0.5;entryDx=0;entryDy=0;" parent="1" source="5" target="7" edge="1">
                    <mxGeometry width="50" height="50" relative="1" as="geometry">
                        <mxPoint x="100" y="438.33" as="sourcePoint"/>
                        <mxPoint x="320" y="410" as="targetPoint"/>
                    </mxGeometry>
                </mxCell>
                <mxCell id="9" value="&lt;div&gt;&amp;lt;&amp;lt;owl:allValuesFrom&amp;gt;&amp;gt;&lt;/div&gt;&lt;div&gt;modl:itemOf&lt;/div&gt;" style="text;html=1;align=center;verticalAlign=middle;resizable=0;points=[];labelBackgroundColor=#ffffff;" parent="8" vertex="1" connectable="0">
                    <mxGeometry x="-0.1269" relative="1" as="geometry">
                        <mxPoint as="offset"/>
                    </mxGeometry>
                </mxCell>
                <mxCell id="11" value="&lt;div&gt;&amp;lt;&amp;lt;owl:ObjectProperty&amp;gt;&amp;gt;&amp;nbsp;&lt;br&gt;&lt;/div&gt;&lt;div&gt;modl:po-Member&lt;/div&gt;" style="rhombus;whiteSpace=wrap;html=1;" parent="1" vertex="1">
                    <mxGeometry x="180" y="470" width="180" height="75" as="geometry"/>
                </mxCell>
                <mxCell id="12" value="&lt;div&gt;&amp;lt;&amp;lt;owl:ObjectProperty&amp;gt;&amp;gt;&amp;nbsp;&lt;br&gt;&lt;/div&gt;&lt;div&gt;modl:itemOf&lt;/div&gt;" style="rhombus;whiteSpace=wrap;html=1;" parent="1" vertex="1">
                    <mxGeometry x="180" y="598" width="180" height="75" as="geometry"/>
                </mxCell>
                <mxCell id="13" value="" style="endArrow=open;html=1;fontColor=#000099;endFill=0;dashed=1;entryX=0.5;entryY=1;entryDx=0;entryDy=0;endSize=8;" parent="1" source="12" target="11" edge="1">
                    <mxGeometry width="50" height="50" relative="1" as="geometry">
                        <mxPoint x="40" y="605" as="sourcePoint"/>
                        <mxPoint x="40" y="535" as="targetPoint"/>
                    </mxGeometry>
                </mxCell>
                <mxCell id="14" value="&amp;lt;&amp;lt;rdfs:subPropertyOf&amp;gt;&amp;gt;" style="text;html=1;align=center;verticalAlign=middle;resizable=0;points=[];fontColor=#000000;labelBackgroundColor=#ffffff;" parent="13" vertex="1" connectable="0">
                    <mxGeometry x="-0.3277" relative="1" as="geometry">
                        <mxPoint y="-7.14" as="offset"/>
                    </mxGeometry>
                </mxCell>
                <mxCell id="15" value="&lt;div&gt;&lt;/div&gt;&lt;b&gt;base:&amp;nbsp;&lt;/b&gt;https://archive.org/services/purl/domain/modular_ontology_design_library/bag&lt;br&gt;&lt;b&gt;modl:&amp;nbsp;&lt;/b&gt;https://purl.prod.archive.org/purl/modular_ontology_design_library" style="shape=note;whiteSpace=wrap;html=1;backgroundOutline=1;darkOpacity=0.05;" parent="1" vertex="1">
                    <mxGeometry x="300" y="820" width="480" height="100" as="geometry"/>
                </mxCell>
                <mxCell id="16" value="&lt;div&gt;&lt;b&gt;dc:creator:&lt;/b&gt;&amp;nbsp;TAI KG+NLP&lt;/div&gt;&lt;div&gt;&lt;b&gt;owl:versionInfo:&lt;/b&gt; 0.0.1&lt;/div&gt;&lt;div&gt;&lt;b&gt;dc:title:&lt;/b&gt;&amp;nbsp;Aggregation/Bag/Collection Pattern&lt;/div&gt;" style="shape=document;whiteSpace=wrap;html=1;boundedLbl=1;labelBackgroundColor=#ffffff;strokeColor=#000000;fontSize=12;fontColor=#000000;size=0.23333333333333334;" parent="1" vertex="1">
                    <mxGeometry x="299" y="710" width="253" height="90" as="geometry"/>
                </mxCell>
            </root>
        </mxGraphModel>
    </diagram>
</mxfile>